<svg width="100" height="100" viewBox="0 0 100 100" fill="none" xmlns="http://www.w3.org/2000/svg">
<g clip-path="url(#clip0)">
<path d="M94.3359 14.8438V6.64062H40.8027L44.4082 14.8438H94.3359Z" fill="white"/>
<path d="M100 20.7031V94.5312H83.4219C86.4629 90.7246 88.2812 85.9023 88.2812 80.6641C88.2812 68.3867 78.293 58.3984 66.0156 58.3984C53.7383 58.3984 43.75 68.3867 43.75 80.6641C43.75 85.9023 45.5684 90.7246 48.6094 94.5312H0V2.92969H32.7715L40.584 20.7031H100Z" fill="white"/>
<path d="M54.4147 69.0631C48.0176 75.4602 48.0176 85.8679 54.4147 92.265C58.5358 96.3861 64.3225 97.8528 69.6285 96.6624C72.5578 96.0063 75.3406 94.541 77.6166 92.265C79.8926 89.989 81.358 87.2062 82.014 84.2769C83.2044 78.9709 81.7377 73.1842 77.6166 69.0631C71.2195 62.666 60.8118 62.666 54.4147 69.0631ZM58.4543 84.0822L61.8725 80.6641L58.4543 77.2459L62.5975 73.1027L66.0157 76.5209L69.4338 73.1027L73.577 77.2459L70.1589 80.6641L73.577 84.0822L69.4338 88.2254L66.0157 84.8073L62.5975 88.2254L58.4543 84.0822Z" fill="white"/>
</g>
<defs>
<clipPath id="clip0">
<rect width="100" height="100" fill="white"/>
</clipPath>
</defs>
</svg>
