<svg width="100" height="100" viewBox="0 0 100 100" fill="none" xmlns="http://www.w3.org/2000/svg">
<g clip-path="url(#clip0)">
<path d="M49.9995 61.4585C49.9995 55.1383 55.1371 50.0008 61.4579 50.0008H83.3327V11.459C83.3327 5.13886 78.1951 0.00128174 71.8742 0.00128174H11.4585C5.13758 0.00128174 0 5.13886 0 11.459V71.8755C0 78.1964 5.13758 83.3332 11.4585 83.3332H49.9995V61.4585Z" fill="white"/>
<path d="M98.7783 92.8874L78.07 72.1792L86.5828 63.6671C87.4785 62.7753 87.741 61.4295 87.2618 60.2629C86.7781 59.0964 85.6406 58.3335 84.3741 58.3335H61.458C59.733 58.3335 58.333 59.7335 58.333 61.4585V84.3754C58.333 85.6373 59.0952 86.7794 60.2617 87.2623C60.6493 87.421 61.0536 87.5004 61.458 87.5004C62.2705 87.5004 63.07 87.1837 63.6659 86.5833L72.1787 78.0713L92.8869 98.7795C93.6987 99.5913 94.766 100 95.8326 100C96.8992 100 97.9658 99.5913 98.7783 98.7795C100.407 97.1499 100.407 94.517 98.7783 92.8874V92.8874Z" fill="white"/>
</g>
<defs>
<clipPath id="clip0">
<rect width="100" height="100" fill="white"/>
</clipPath>
</defs>
</svg>
