<svg width="100" height="100" viewBox="0 0 100 100" fill="none" xmlns="http://www.w3.org/2000/svg">
<path d="M65.478 50.0005L99.3881 16.0894C100.202 15.2753 100.202 13.9557 99.3881 13.1417L86.8603 0.610805C86.4694 0.219931 85.9379 0 85.3865 0C84.834 0 84.3035 0.219931 83.9126 0.610805L50.0004 34.523L16.0883 0.610805C15.3065 -0.170942 13.9223 -0.170942 13.1406 0.610805L0.611765 13.1417C-0.202294 13.9557 -0.202294 15.2753 0.611765 16.0894L34.5229 50.0005L0.611765 83.9117C-0.202294 84.7257 -0.202294 86.0453 0.611765 86.8594L13.1406 99.3892C13.5314 99.7801 14.062 100 14.6144 100C15.1668 100 15.6974 99.7801 16.0883 99.3892L50.0004 65.477L83.9126 99.3892C84.3035 99.7801 84.834 100 85.3865 100C85.9379 100 86.4694 99.7801 86.8603 99.3892L99.3891 86.8594C100.203 86.0453 100.203 84.7247 99.3891 83.9117L65.478 50.0005Z" fill="white"/>
</svg>
