<svg width="100" height="100" viewBox="0 0 100 100" fill="none" xmlns="http://www.w3.org/2000/svg">
<g clip-path="url(#clip0)">
<path d="M98.3972 78.4606L47.4405 49.9367L98.3972 21.412C99.2265 20.9497 99.7971 20.1333 99.9551 19.1957C100.118 18.2749 99.8307 17.3037 99.1967 16.5957C93.3597 10.1124 83.3685 9.64629 73.1187 15.3788L69.4018 17.4456C57.9229 23.8121 42.203 32.533 37.1823 38.5578C36.0448 39.9242 35.1201 41.2867 34.3404 42.6035L22.9035 36.1996C29.0076 33.7247 33.3326 27.7534 33.3326 20.7704C33.3326 11.5795 25.8575 4.10446 16.6659 4.10446C7.47506 4.10446 0 11.5795 0 20.7704C0 26.9119 3.37514 32.224 8.32876 35.1163C8.41192 35.1742 8.44549 35.2704 8.53322 35.32L30.7242 47.7403C30.8073 48.2323 30.9576 48.9907 31.2117 49.9367C30.9576 50.8819 30.8073 51.6403 30.728 52.1278L8.53704 64.5488C8.45007 64.5984 8.41192 64.6946 8.33334 64.7525C3.37514 67.644 0 72.9608 0 79.1022C0 88.2939 7.47506 95.7682 16.6659 95.7682C25.8575 95.7682 33.3326 88.2939 33.3326 79.1022C33.3326 72.1193 29.0076 66.1487 22.9035 63.6692L34.3404 57.2653C35.1201 58.5821 36.0448 59.9446 37.1823 61.311C42.203 67.3358 57.9275 76.0567 69.4018 82.4232L73.1187 84.4892C83.3685 90.2225 93.3597 89.7564 99.1967 83.2731C99.8307 82.5644 100.118 81.5939 99.9551 80.6731C99.801 79.7355 99.2265 78.923 98.3972 78.4606V78.4606ZM16.6659 29.1037C12.0701 29.1037 8.33334 25.3624 8.33334 20.7704C8.33334 16.1791 12.0701 12.4378 16.6659 12.4378C21.2617 12.4378 24.9993 16.1746 24.9993 20.7704C24.9993 25.3662 21.2617 29.1037 16.6659 29.1037ZM24.9993 79.1022C24.9993 83.698 21.2617 87.4356 16.6659 87.4356C12.0701 87.4356 8.33334 83.698 8.33334 79.1022C8.33334 74.5064 12.0701 70.7689 16.6659 70.7689C21.2617 70.7689 24.9993 74.5064 24.9993 79.1022Z" fill="white"/>
</g>
<defs>
<clipPath id="clip0">
<rect width="100" height="100" fill="white"/>
</clipPath>
</defs>
</svg>
