<svg width="100" height="100" viewBox="0 0 100 100" fill="none" xmlns="http://www.w3.org/2000/svg">
<path d="M50 12.5C45.5796 12.5 41.9998 13.275 41.9998 15V70L24.1375 54.0953C22.9484 52.8469 20.9718 52.7953 19.7187 53.9875C18.4687 55.1781 16.8094 58.75 18 60L45.5796 85.6687C46.7609 86.85 48.3296 87.5 50 87.5C51.6687 87.5 53.239 86.85 54.4718 85.6141L81.9999 60C83.1905 58.75 81.5281 55.1781 80.2797 53.9875C79.0312 52.7953 77.0531 52.8453 75.8625 54.0953L57.9998 70V15C57.9998 15 57.9998 12.5 50 12.5Z" fill="white"/>
</svg>
