<svg width="200" height="200" viewBox="0 0 200 200" fill="none" xmlns="http://www.w3.org/2000/svg">
<g clip-path="url(#clip0)">
<path d="M170.709 29.2906C131.655 -9.76367 68.3363 -9.76367 29.2902 29.2914C-9.76367 68.3453 -9.76367 131.664 29.2918 170.71C68.3363 209.764 131.655 209.764 170.709 170.709C209.764 131.664 209.764 68.3453 170.709 29.2906ZM158.925 158.923C126.379 191.47 73.6141 191.47 41.077 158.925C8.53086 126.386 8.53086 73.6215 41.0762 41.0762C73.6141 8.53047 126.379 8.53047 158.924 41.0762C191.47 73.6219 191.47 126.386 158.925 158.923Z" fill="white"/>
<path d="M141.247 58.7531C137.993 55.4988 132.716 55.4988 129.462 58.7531L99.9988 88.216L70.5359 58.7531C67.2816 55.4988 62.0051 55.4988 58.7508 58.7531C55.4965 62.0074 55.4965 67.284 58.7508 70.5383L88.2137 100.001L58.7617 129.453C55.5074 132.707 55.5074 137.984 58.7617 141.238C62.016 144.493 67.2926 144.493 70.5469 141.238L99.9988 111.786L129.459 141.247C132.714 144.501 137.99 144.501 141.245 141.247C144.499 137.993 144.499 132.716 141.245 129.462L111.784 100.001L141.247 70.5383C144.501 67.284 144.501 62.0078 141.247 58.7531Z" fill="white"/>
</g>
<defs>
<clipPath id="clip0">
<rect width="200" height="200" fill="white"/>
</clipPath>
</defs>
</svg>
