<svg width="100" height="100" viewBox="0 0 100 100" fill="none" xmlns="http://www.w3.org/2000/svg">
<path d="M89.397 10.6033C75.2601 -3.5338 52.2571 -3.5338 38.1202 10.6033C31.2719 17.4516 27.5002 26.5569 27.5002 36.2419C27.5002 45.9269 31.2717 55.0319 38.1202 61.8804C45.1888 68.9492 54.4737 72.4832 63.7587 72.4832C73.0437 72.4832 82.3287 68.9488 89.3972 61.8804C103.534 47.7431 103.534 24.7403 89.397 10.6033ZM82.9632 55.4462C77.6685 60.7409 70.7136 63.3882 63.7587 63.3882C56.8038 63.3882 49.8489 60.7409 44.5542 55.4462C39.4245 50.3165 36.5995 43.4962 36.5995 36.2417C36.5995 28.987 39.4245 22.1666 44.5542 17.0369C55.1435 6.44767 72.374 6.44767 82.9632 17.0369C88.0929 22.1666 90.9179 28.987 90.9179 36.2417C90.9181 43.4962 88.0931 50.3165 82.9632 55.4462Z" fill="white"/>
<path d="M78.8149 21.1852C74.6643 17.0348 69.2105 14.9588 63.7588 14.9588C58.3056 14.9588 52.8543 17.0336 48.7027 21.1852C40.4005 29.4874 40.4005 42.9956 48.7027 51.2976C57.0047 59.5994 70.5129 59.5994 78.8149 51.2976C87.1166 42.9956 87.1166 29.4872 78.8149 21.1852Z" fill="white"/>
<path d="M33.8585 66.1519C30.995 63.289 28.596 60.0862 26.692 56.6372L3.44747 79.8816C-1.14883 84.4779 -1.14883 91.9566 3.44747 96.5529C5.74552 98.8512 8.76428 100 11.7832 100C14.8022 100 17.8207 98.8512 20.119 96.5529L43.3712 73.3007C39.9573 71.4236 36.7487 69.0417 33.8585 66.1519Z" fill="white"/>
</svg>
