<svg width="100" height="100" viewBox="0 0 100 100" fill="none" xmlns="http://www.w3.org/2000/svg">
<g clip-path="url(#clip0)">
<path d="M96.8752 -0.195312H2.73438C1.11618 -0.195312 -0.195312 1.11618 -0.195312 2.73438V34.1141C-0.195312 35.7323 1.11618 37.0438 2.73438 37.0438C4.35258 37.0438 5.66407 35.7323 5.66407 34.1141V21.354H39.0313V46.8751H2.73438C1.11618 46.8751 -0.195312 48.1866 -0.195312 49.8048V59.2187C-0.195312 60.8369 1.11618 62.1484 2.73438 62.1484C4.35258 62.1484 5.66407 60.8369 5.66407 59.2187V52.7345H19.4176V93.9455H9.79464C8.1772 93.9455 6.86494 95.257 6.86494 96.8752C6.86494 98.4926 8.1772 99.8049 9.79464 99.8049H68.6326C70.2508 99.8049 71.5623 98.4926 71.5623 96.8752V81.1853C71.5623 79.5671 70.2508 78.2556 68.6326 78.2556H60.5806V21.354H93.9455V34.1141C93.9455 35.7323 95.257 37.0438 96.8752 37.0438C98.4926 37.0438 99.8049 35.7323 99.8049 34.1141V2.73438C99.8049 1.11618 98.4934 -0.195312 96.8752 -0.195312ZM25.277 52.7345H39.0298V59.2187C39.0298 59.2263 39.0313 59.234 39.0313 59.2416V78.2556H30.9769C29.3587 78.2556 28.0472 79.5671 28.0472 81.1853V93.9455H25.277V52.7345Z" fill="white"/>
</g>
<defs>
<clipPath id="clip0">
<rect width="100" height="100" fill="white"/>
</clipPath>
</defs>
</svg>
