<svg width="100" height="100" viewBox="0 0 100 100" fill="none" xmlns="http://www.w3.org/2000/svg">
<g clip-path="url(#clip0)">
<path d="M74.9999 52.0832H51.0416V48.9582C51.0416 47.6957 50.2791 46.5541 49.1124 46.0707C47.9458 45.5832 46.5958 45.8541 45.7083 46.7499L38.4166 54.0415C37.1958 55.2624 37.1958 57.2415 38.4166 58.4624L45.7083 65.754C46.3041 66.3498 47.1041 66.6665 47.9166 66.6665C48.3208 66.6665 48.7249 66.5873 49.1124 66.429C50.2791 65.9457 51.0416 64.804 51.0416 63.5415V60.4165H74.9999C77.3041 60.4165 79.1666 58.5498 79.1666 56.2499C79.1666 53.9499 77.3041 52.0832 74.9999 52.0832Z" fill="white"/>
<path d="M39.0417 41.6666L39.8333 40.8749C43.125 37.5833 48 36.5833 52.3333 38.3749C54.875 39.4583 56.9167 41.3749 58.125 43.7499H62.5V29.1666C62.5 24.5833 58.75 20.8333 54.1667 20.8333H8.33333C3.75 20.8333 0 24.5833 0 29.1666V70.8333C0 75.4166 3.75 79.1666 8.33333 79.1666H54.1667C58.75 79.1666 62.5 75.4166 62.5 70.8333V68.7499H58.125C56.9167 71.1249 54.875 73.0416 52.2917 74.1249C50.9167 74.7083 49.4167 74.9999 47.9167 74.9999C44.875 74.9999 42 73.7916 39.8333 71.6249L39.0417 70.8333H12.5C10.2083 70.8333 8.33333 68.9583 8.33333 66.6666V41.6666H39.0417Z" fill="white"/>
<path d="M91.6663 20.8333H68.583C69.9997 23.2916 70.833 26.1249 70.833 29.1666V41.6666H91.6663V66.6666C91.6663 68.9583 89.7913 70.8333 87.4996 70.8333H70.833C70.833 73.8749 69.9997 76.7083 68.583 79.1666H91.6663C96.2496 79.1666 99.9996 75.4166 99.9996 70.8333V29.1666C99.9996 24.5833 96.2496 20.8333 91.6663 20.8333Z" fill="white"/>
</g>
<defs>
<clipPath id="clip0">
<rect width="100" height="100" fill="white"/>
</clipPath>
</defs>
</svg>
