<svg width="100" height="100" viewBox="0 0 100 100" fill="none" xmlns="http://www.w3.org/2000/svg">
<path d="M94.3359 14.8438V6.64062H40.8027L44.4082 14.8438H94.3359Z" fill="white"/>
<path d="M100 20.7031V94.5312H83.4219C86.4629 90.7246 88.2812 85.9023 88.2812 80.6641C88.2812 68.3867 78.293 58.3984 66.0156 58.3984C53.7383 58.3984 43.75 68.3867 43.75 80.6641C43.75 85.9023 45.5684 90.7246 48.6094 94.5312H0V2.92969H32.7715L40.584 20.7031H100Z" fill="white"/>
<path d="M66.0156 64.2578C56.9688 64.2578 49.6094 71.6172 49.6094 80.6641C49.6094 86.4922 52.6641 91.6211 57.2578 94.5312C59.793 96.1387 62.7969 97.0703 66.0156 97.0703C69.2344 97.0703 72.2383 96.1387 74.7734 94.5312C79.3672 91.6211 82.4219 86.4922 82.4219 80.6641C82.4219 71.6172 75.0625 64.2578 66.0156 64.2578ZM58.252 77.7344H63.0859V72.9004H68.9453V77.7344H73.7793V83.5938H68.9453V88.4277H63.0859V83.5938H58.252V77.7344Z" fill="white"/>
</svg>
