<svg width="100" height="100" viewBox="0 0 100 100" fill="none" xmlns="http://www.w3.org/2000/svg">
<path d="M59.5543 65.4457L80.2627 86.1542L71.7498 94.6663C70.8542 95.5582 70.5917 96.904 71.0708 98.0705C71.5538 99.2378 72.6913 100 73.9586 100H96.875C98.6 100 100 98.6 100 96.875V73.9586C100 72.6959 99.2378 71.5538 98.0705 71.0709C97.6829 70.9122 97.2793 70.8336 96.875 70.8336C96.0624 70.8336 95.2621 71.1502 94.6663 71.7499L86.1541 80.2628L65.4457 59.5543C64.6331 58.7418 63.5666 58.3336 62.5 58.3336C61.4334 58.3336 60.3668 58.7418 59.5543 59.5543C57.9246 61.1832 57.9246 63.8168 59.5543 65.4457V65.4457Z" fill="white"/>
<path d="M53.6629 71.3371C51.3 68.9789 50 65.8379 50 62.5C50 59.1621 51.3 56.0211 53.6629 53.6629C56.0211 51.3 59.1621 50 62.5 50C65.8379 50 68.9789 51.3 71.3371 53.6629L83.3336 65.654V11.4586C83.3336 5.13763 78.196 0 71.875 0H11.4586C5.13763 0 0 5.13763 0 11.4586V71.875C0 78.196 5.13763 83.3336 11.4586 83.3336H65.6586L53.6629 71.3371Z" fill="white"/>
</svg>
