<svg width="100" height="100" viewBox="0 0 100 100" fill="none" xmlns="http://www.w3.org/2000/svg">
<g clip-path="url(#clip0)">
<path d="M0.170166 55.908C1.93888 38.0584 18.001 25.0024 35.9381 25.0024L62.5001 25.0024V9.37773C62.5001 8.17775 63.1876 7.08403 64.2688 6.55904C65.3563 6.0403 66.6375 6.1778 67.575 6.93403L98.8243 31.9335C99.568 32.5335 99.9993 33.4272 99.9993 34.3772C99.9993 35.3272 99.568 36.2209 98.8305 36.8209L67.5812 61.8204C67.0125 62.2703 66.3187 62.5016 65.625 62.5016C65.1625 62.5016 64.7 62.4016 64.2688 62.1953C63.1876 61.6704 62.5001 60.5766 62.5001 59.3767V43.752L35.2757 43.752C27.1008 43.752 19.651 49.6269 18.8323 57.7579C17.8885 67.1077 25.2196 75.0013 34.3757 75.0013H59.3751C61.1001 75.0013 62.5001 76.4013 62.5001 78.1263V90.626C62.5001 92.3509 61.1001 93.7509 59.3751 93.7509H34.3757C14.2949 93.7509 -1.84854 76.395 0.170166 55.908Z" fill="white"/>
</g>
<defs>
<clipPath id="clip0">
<rect width="100" height="100" fill="white"/>
</clipPath>
</defs>
</svg>
