<svg width="100" height="100" viewBox="0 0 100 100" fill="none" xmlns="http://www.w3.org/2000/svg">
<g clip-path="url(#clip0)">
<path d="M21.272 0.0195312L8.86267 12.4287H21.272V0.0195312Z" fill="white"/>
<path d="M54.7247 63.5682C59.4038 58.8891 65.6251 56.3121 72.2423 56.3121C72.653 56.3121 73.0624 56.3221 73.4698 56.3418V0H27.1313V18.2881H8.84326V85.3121H47.8261C47.5897 83.9295 47.4687 82.517 47.4687 81.0857C47.4687 74.4686 50.0456 68.2473 54.7247 63.5682V63.5682ZM20.9112 25.8533H61.4021V31.7127H20.9112V25.8533ZM20.9112 38.3016H61.4021V44.1609H20.9112V38.3016ZM20.9112 50.7496H61.4021V56.609H20.9112V50.7496Z" fill="white"/>
<path d="M85.6167 67.7113C78.2302 60.3248 66.2544 60.3248 58.8679 67.7113C51.4814 75.0978 51.4814 87.0736 58.8679 94.4602C66.2544 101.847 78.2302 101.847 85.6167 94.4602C93.0033 87.0736 93.0033 75.0978 85.6167 67.7113ZM80.5468 84.0154H63.9382V78.156H80.5468V84.0154Z" fill="white"/>
</g>
<defs>
<clipPath id="clip0">
<rect width="100" height="100" fill="white"/>
</clipPath>
</defs>
</svg>
