<svg width="100" height="75" viewBox="0 0 100 75" fill="none" xmlns="http://www.w3.org/2000/svg">
<path fill-rule="evenodd" clip-rule="evenodd" d="M50.0002 9.37499C34.9547 9.37499 22.7274 21.9844 22.7274 37.5H36.3638L18.1819 56.25L0 37.5H13.6364C13.6364 16.7812 29.9092 0 50.0002 0C57.1366 0 63.773 2.15625 69.3639 5.8125L62.7275 12.6562C58.9548 10.5469 54.5911 9.37499 50.0002 9.37499ZM63.6361 37.5L81.818 18.75L99.9999 37.5H86.3635C86.3635 58.2188 70.0907 75 49.9997 75C42.8633 75 36.2269 72.8438 30.636 69.1875L37.2724 62.3438C41.0451 64.4531 45.4088 65.625 49.9997 65.625C65.0452 65.625 77.2725 53.0156 77.2725 37.5H63.6361Z" fill="white"/>
</svg>
