<svg width="100" height="100" viewBox="0 0 100 100" fill="none" xmlns="http://www.w3.org/2000/svg">
<g clip-path="url(#clip0)">
<path d="M98.6979 27.6032C97.83 25.5208 96.7876 23.871 95.5718 22.656L77.3426 4.42658C76.1283 3.2123 74.4785 2.17019 72.3952 1.30161C70.313 0.433947 68.4028 0 66.667 0H6.25008C4.51452 0 3.03847 0.607252 1.82305 1.82267C0.607634 3.0374 0.000610352 4.51323 0.000610352 6.2497V93.7503C0.000610352 95.4872 0.607634 96.9631 1.82305 98.178C3.03847 99.3923 4.51452 100 6.25008 100H93.7505C95.4876 100 96.9632 99.3923 98.1782 98.178C99.3924 96.9631 99.9995 95.4872 99.9995 93.7503V33.3334C99.9995 31.5967 99.5658 29.6872 98.6979 27.6032ZM41.6673 10.4159C41.6673 9.85171 41.8736 9.3644 42.2861 8.95121C42.6982 8.53984 43.1866 8.3337 43.7508 8.3337H56.2513C56.8141 8.3337 57.3023 8.53938 57.7146 8.95121C58.128 9.3644 58.3342 9.85171 58.3342 10.4159V31.2494C58.3342 31.8145 58.1267 32.3025 57.7146 32.715C57.3023 33.1261 56.8141 33.3325 56.2513 33.3325H43.7508C43.1866 33.3325 42.698 33.1268 42.2861 32.715C41.8736 32.3018 41.6673 31.8145 41.6673 31.2494V10.4159V10.4159ZM75.0014 91.6672H24.9999V66.6666H75.0014V91.6672ZM91.6692 91.6672H83.3341H83.3325V64.5831C83.3325 62.8461 82.7253 61.3712 81.5103 60.1553C80.2954 58.9404 78.8195 58.3324 77.0842 58.3324H22.9168C21.1805 58.3324 19.7045 58.9404 18.4891 60.1553C17.2743 61.3703 16.6666 62.8461 16.6666 64.5831V91.6672H8.33316V8.33278H16.6664V35.4165C16.6664 37.153 17.2734 38.6281 18.4888 39.8435C19.7043 41.0583 21.1803 41.6662 22.9166 41.6662H60.418C62.1533 41.6662 63.6307 41.0583 64.8441 39.8435C66.0584 38.6288 66.667 37.153 66.667 35.4165V8.33278C67.3178 8.33278 68.1636 8.54941 69.2064 8.98336C70.2489 9.41708 70.9864 9.85103 71.4203 10.285L89.7159 28.5801C90.1496 29.014 90.5838 29.7636 91.0175 30.8264C91.4528 31.8902 91.669 32.7259 91.669 33.3334V91.6672H91.6692Z" fill="white"/>
</g>
<defs>
<clipPath id="clip0">
<rect width="100" height="100" fill="white"/>
</clipPath>
</defs>
</svg>
