<svg width="100" height="100" viewBox="0 0 100 100" fill="none" xmlns="http://www.w3.org/2000/svg">
<path d="M98.7771 36.4666C97.7215 35.1668 96.1304 34.408 94.4459 34.408H88.8903C88.8903 31.3707 86.4036 28.9096 83.3346 28.9096H77.779V23.4112C77.779 20.3738 75.2923 17.9128 72.2233 17.9128H69.4455V6.91593C69.4455 5.39836 68.1988 4.16672 66.6677 4.16672H11.1113C9.5757 4.16672 8.33346 5.39836 8.33346 6.91593V17.9128H5.55564C2.4867 17.9128 0 20.3738 0 23.4112V89.3922C0 92.4295 2.4867 94.8906 5.55564 94.8906H16.6669H72.2233H83.3346C85.9391 94.8906 88.1969 93.1003 88.7547 90.5842L99.866 41.0985C100.235 39.4709 99.8327 37.7664 98.7771 36.4666ZM8.33346 89.3922H5.55564V23.4112H8.33346V89.3922ZM69.93 62.6567L50.4852 81.8989C49.4008 82.9722 47.643 82.9722 46.5563 81.8989L27.1115 62.6545C26.3182 61.8715 26.0782 60.686 26.5093 59.6589C26.9382 58.6318 27.9493 57.9632 29.0738 57.9632H36.0183V34.4102H27.7782C25.1737 34.4102 22.9159 36.2005 22.3537 38.7166C22.3537 38.7166 11.1157 88.9963 11.1157 89.3944H11.1113V6.91812H66.6677V28.9118C63.5988 28.9118 61.1121 31.3729 61.1121 34.4102H61.0187V57.9654H67.9633C69.0877 57.9654 70.0989 58.6362 70.53 59.6611C70.9655 60.6882 70.7233 61.8693 69.93 62.6567ZM72.2233 28.9096H69.4455V23.4112H72.2233V28.9096ZM19.2603 16.3556C19.2603 14.838 20.5048 13.6064 22.0381 13.6064H55.1853C56.7187 13.6064 57.9631 14.838 57.9631 16.3556C57.9631 17.8732 56.7187 19.1048 55.1853 19.1048H22.0381C20.507 19.1048 19.2603 17.8732 19.2603 16.3556ZM55.1853 30.2842H22.0381C20.5048 30.2842 19.2603 29.0525 19.2603 27.535C19.2603 26.0174 20.5048 24.7858 22.0381 24.7858H55.1853C56.7187 24.7858 57.9631 26.0174 57.9631 27.535C57.9631 29.0525 56.7187 30.2842 55.1853 30.2842Z" fill="white"/>
</svg>
