<svg width="512" height="512" viewBox="0 0 512 512" fill="none" xmlns="http://www.w3.org/2000/svg">
<path d="M512 256C512 397.387 397.387 512 256 512C114.613 512 0 397.387 0 256C0 114.613 114.613 0 256 0C397.387 0 512 114.613 512 256Z" fill="#414952"/>
<path d="M280.625 510.816C410.453 498.422 512 389.078 512 256C512 224.215 506.191 193.785 495.602 165.703L423.031 93.1328L116.309 118.406L88.9688 173.785L292.426 377.238L188.676 418.867L280.625 510.816Z" fill="#23272B"/>
<path d="M88.9688 93.1328V173.785H142.047V146.207H229.465V365.793H188.676V418.867H323.324V365.793H282.535V146.207H369.953V173.785H423.031V93.1328H88.9688Z" fill="white"/>
<path d="M255.594 93.1328V418.867H323.324V365.793H282.535V146.207H369.953V173.785H423.031V93.1328H255.594Z" fill="#E9EDF5"/>
</svg>
