<svg width="100" height="100" viewBox="0 0 100 100" fill="none" xmlns="http://www.w3.org/2000/svg">
<path d="M99.8291 55.908C98.0604 38.0584 81.9982 25.0024 64.0611 25.0024H37.4992V9.37773C37.4992 8.17775 36.8117 7.08403 35.7305 6.55904C34.643 6.0403 33.3618 6.1778 32.4243 6.93403L1.17497 31.9335C0.431241 32.5335 0 33.4272 0 34.3772C0 35.3272 0.431241 36.2209 1.16872 36.8209L32.4181 61.8204C32.9868 62.2703 33.6805 62.5016 34.3743 62.5016C34.8368 62.5016 35.2992 62.4016 35.7305 62.1953C36.8117 61.6704 37.4992 60.5766 37.4992 59.3767V43.752H64.7236C72.8984 43.752 80.3483 49.6269 81.167 57.7579C82.1107 67.1077 74.7796 75.0013 65.6236 75.0013H40.6241C38.8992 75.0013 37.4992 76.4013 37.4992 78.1263V90.626C37.4992 92.351 38.8992 93.7509 40.6241 93.7509H65.6236C85.7044 93.7509 101.848 76.395 99.8291 55.908Z" fill="white"/>
</svg>
