<svg width="100" height="100" viewBox="0 0 100 100" fill="none" xmlns="http://www.w3.org/2000/svg">
<path d="M49.9993 87.5C54.4196 87.5 57.9994 86.725 57.9994 85L57.9994 30L75.8618 45.9047C77.0509 47.1531 79.0274 47.2047 80.2806 46.0125C81.5306 44.8219 83.1899 41.25 81.9993 40L54.4196 14.3313C53.2384 13.15 51.6696 12.5 49.9993 12.5C48.3306 12.5 46.7602 13.15 45.5274 14.3859L17.9994 40C16.8088 41.25 18.4712 44.8219 19.7196 46.0125C20.9681 47.2047 22.9462 47.1547 24.1368 45.9047L41.9994 30L41.9994 85C41.9994 85 41.9994 87.5 49.9993 87.5Z" fill="white"/>
</svg>
